<svg xmlns="http://www.w3.org/2000/svg" width="28.632" height="28.246" viewBox="0 0 28.632 28.246">
  <g id="category" transform="translate(-148 -208.504)">
    <path id="Rectangle_12" data-name="Rectangle 12" d="M2,2V9.445H9.445V2H2M2,0H9.445a2,2,0,0,1,2,2V9.445a2,2,0,0,1-2,2H2a2,2,0,0,1-2-2V2A2,2,0,0,1,2,0Z" transform="translate(161.08 225.305)" fill="#ecedf1"/>
    <path id="Rectangle_13" data-name="Rectangle 13" d="M2,2V9.445H9.445V2H2M2,0H9.445a2,2,0,0,1,2,2V9.445a2,2,0,0,1-2,2H2a2,2,0,0,1-2-2V2A2,2,0,0,1,2,0Z" transform="translate(148 225.305)" fill="#ecedf1"/>
    <path id="Rectangle_14" data-name="Rectangle 14" d="M2,2V9.445H9.445V2H2M2,0H9.445a2,2,0,0,1,2,2V9.445a2,2,0,0,1-2,2H2a2,2,0,0,1-2-2V2A2,2,0,0,1,2,0Z" transform="translate(148 212.225)" fill="#ecedf1"/>
    <path id="Rectangle_15" data-name="Rectangle 15" d="M2,2V9.445H9.445V2H2M2,0H9.445a2,2,0,0,1,2,2V9.445a2,2,0,0,1-2,2H2a2,2,0,0,1-2-2V2A2,2,0,0,1,2,0Z" transform="translate(160.445 216.597) rotate(-45)" fill="#ecedf1"/>
  </g>
</svg>
