<svg xmlns="http://www.w3.org/2000/svg" width="24.21" height="24.218" viewBox="0 0 24.21 24.218"><path d="M22.942,16.516a4.323,4.323,0,1,0-5.568,0,6.052,6.052,0,0,0-.562.329,7.782,7.782,0,0,0-3.735-3.727,6.053,6.053,0,1,0-6.6,0A7.782,7.782,0,0,0,2,20.156v5.188a.865.865,0,0,0,.865.865H25.345a.865.865,0,0,0,.865-.865V21.886a6.053,6.053,0,0,0-3.268-5.369Zm-5.378-3.277a2.594,2.594,0,1,1,2.594,2.594A2.594,2.594,0,0,1,17.564,13.239ZM5.459,8.051a4.323,4.323,0,1,1,4.323,4.323A4.323,4.323,0,0,1,5.459,8.051ZM14.97,24.48H3.729V20.156a6.053,6.053,0,1,1,12.105,0V24.48Zm9.511,0H17.564V20.156a7.782,7.782,0,0,0-.156-1.574,4.228,4.228,0,0,1,2.75-1.02,4.323,4.323,0,0,1,4.323,4.323Z" transform="translate(-2 -1.991)"/></svg>