<svg xmlns="http://www.w3.org/2000/svg" width="25.718" height="25.718" viewBox="0 0 25.718 25.718"><g transform="translate(0.75 0.75)"><line y2="4.535" transform="translate(8.292 12.489)" fill="none" stroke="#200e32" stroke-linecap="round" stroke-linejoin="round" stroke-width="1.5"/><line x1="4.627" transform="translate(5.979 14.757)" fill="none" stroke="#200e32" stroke-linecap="round" stroke-linejoin="round" stroke-width="1.5"/><line x1="0.13" transform="translate(16.055 12.627)" fill="none" stroke="#200e32" stroke-linecap="round" stroke-linejoin="round" stroke-width="1.5"/><line x1="0.13" transform="translate(18.252 16.956)" fill="none" stroke="#200e32" stroke-linecap="round" stroke-linejoin="round" stroke-width="1.5"/><path d="M7.353,0h0A1.64,1.64,0,0,0,9.009,1.624h1.279A2.546,2.546,0,0,1,12.85,4.132V4.95m4.622,19.223q-5.458.092-10.723,0A6.466,6.466,0,0,1,0,17.572v-5.63a6.466,6.466,0,0,1,6.748-6.6q5.3-.091,10.723,0a6.466,6.466,0,0,1,6.747,6.6v5.63A6.465,6.465,0,0,1,17.471,24.173Z" fill="none" stroke="#200e32" stroke-linecap="round" stroke-linejoin="round" stroke-width="1.5" fill-rule="evenodd"/></g></svg>