<svg xmlns="http://www.w3.org/2000/svg" width="25.036" height="25.036" viewBox="0 0 25.036 25.036"><path d="M21.941,8a3.707,3.707,0,0,0-3.7,3.7,10.094,10.094,0,0,0,2.543,5.868,14.234,14.234,0,0,0,1.985,2.052,6.257,6.257,0,0,0,.88.622,1.446,1.446,0,0,0,1.7,0,6.164,6.164,0,0,0,.88-.622,14.264,14.264,0,0,0,1.985-2.052A10.091,10.091,0,0,0,30.761,11.7a3.708,3.708,0,0,0-3.7-3.7A3.634,3.634,0,0,0,24.5,9.166,3.639,3.639,0,0,0,21.941,8Zm0,1.138a2.559,2.559,0,0,1,2.1,1.088.569.569,0,0,0,.931,0A2.561,2.561,0,0,1,29.622,11.7a9.365,9.365,0,0,1-2.294,5.157,13.279,13.279,0,0,1-1.821,1.886,5.258,5.258,0,0,1-.715.51c-.191.108-.339.129-.291.129s-.1-.021-.291-.129a5.258,5.258,0,0,1-.716-.51,13.31,13.31,0,0,1-1.82-1.886A9.364,9.364,0,0,1,19.381,11.7a2.552,2.552,0,0,1,2.561-2.561Zm-7.1,11.38a.569.569,0,0,0-.517.315l-2.687,5.375H8.569a.569.569,0,0,0,0,1.138h3.414a.569.569,0,0,0,.509-.315l2.336-4.672,5.181,10.362a.569.569,0,0,0,1.018,0L24.5,25.774l1.767,3.534a.569.569,0,0,0,.914.145l2.073-2.106h3.211a.569.569,0,0,0,0-1.138H29.018a.569.569,0,0,0-.406.17l-1.681,1.708-1.92-3.84a.569.569,0,0,0-1.019,0l-3.474,6.948L15.337,20.833A.569.569,0,0,0,14.836,20.518Z" transform="translate(-8 -8)"/></svg>