<svg xmlns="http://www.w3.org/2000/svg" width="24.73" height="25.926" viewBox="0 0 24.73 25.926">
  <path id="home" d="M18.575,24.926H16.25a2.467,2.467,0,0,1-1.708-.737,2.437,2.437,0,0,1-.707-1.722v-3.68a.707.707,0,0,0-.715-.7H9.672a.708.708,0,0,0-.707.7v3.669a1,1,0,0,1-.038.275,2.483,2.483,0,0,1-2.469,2.195h-2.3A5.14,5.14,0,0,1-1,19.813V9.388s0-.007,0-.01A3.87,3.87,0,0,1,.535,6.321L8.363.04l0,0a4.8,4.8,0,0,1,5.961,0L22.195,6.31A3.9,3.9,0,0,1,23.73,9.363s0,.009,0,.014V19.813A5.14,5.14,0,0,1,18.575,24.926Zm-2.287-2h2.287a3.138,3.138,0,0,0,3.155-3.113V9.384a1.908,1.908,0,0,0-.758-1.492l-.017-.013L13.083,1.6a2.822,2.822,0,0,0-3.473,0L1.777,7.889l-.022.017A1.884,1.884,0,0,0,1,9.393v10.42a3.138,3.138,0,0,0,3.155,3.113h2.3a.478.478,0,0,0,.485-.47,1,1,0,0,1,.023-.214V18.788a2.713,2.713,0,0,1,2.7-2.7H13.12a2.709,2.709,0,0,1,2.715,2.7v3.68A.468.468,0,0,0,16.288,22.926Z" transform="translate(1 1)" fill="#ecedf1"/>
</svg>
