<svg xmlns="http://www.w3.org/2000/svg" width="23.837" height="25.091" viewBox="0 0 23.837 25.091">
  <path id="home_active" d="M8.335,23.563V19.716a1.78,1.78,0,0,1,1.775-1.773h3.606A1.78,1.78,0,0,1,15.5,19.716h0v3.836a1.544,1.544,0,0,0,1.539,1.539H19.5a4.341,4.341,0,0,0,3.065-1.254,4.278,4.278,0,0,0,1.271-3.04V9.868a3.1,3.1,0,0,0-1.123-2.387L14.356.846A3.908,3.908,0,0,0,9.391.935L1.213,7.482A3.1,3.1,0,0,0,0,9.868V20.786a4.321,4.321,0,0,0,4.336,4.3h2.4a1.545,1.545,0,0,0,1.1-.444,1.522,1.522,0,0,0,.455-1.084Z" fill="#1877f2"/>
</svg>
