<svg xmlns="http://www.w3.org/2000/svg" width="26.64" height="24.218" viewBox="0 0 26.64 24.218"><g transform="translate(-1 -2)"><path d="M1,6.211A1.211,1.211,0,0,1,2.211,5H26.429A1.211,1.211,0,0,1,27.64,6.211v8.476a1.211,1.211,0,0,1-1.061,1.2L16.892,17.1l-.3-2.4,8.626-1.078v-6.2H3.422v6.2L12.048,14.7l-.3,2.4L2.061,15.888A1.211,1.211,0,0,1,1,14.687Z" transform="translate(0 0.633)" fill-rule="evenodd"/><path d="M9.211,13.5a1.211,1.211,0,0,1,1.211-1.211h4.844A1.211,1.211,0,0,1,16.476,13.5v6.054a1.211,1.211,0,0,1-1.211,1.211H10.422a1.211,1.211,0,0,1-1.211-1.211Zm2.422,1.211v3.633h2.422V14.714ZM8,5.027A3.027,3.027,0,0,1,11.027,2H14.66a3.027,3.027,0,0,1,3.027,3.027V6.844H15.265V5.027a.605.605,0,0,0-.605-.605H11.027a.605.605,0,0,0-.605.605V6.844H8Z" transform="translate(1.476)" fill-rule="evenodd"/><path d="M2,22.582V13.5H4.422v7.871H23.8V13.5h2.422v9.082a1.211,1.211,0,0,1-1.211,1.211H3.211A1.211,1.211,0,0,1,2,22.582Z" transform="translate(0.211 2.425)" fill-rule="evenodd"/></g></svg>