<svg xmlns="http://www.w3.org/2000/svg" width="22.868" height="24.627" viewBox="0 0 22.868 24.627"><g transform="translate(-3 -2)"><path d="M18.916,28.8H11.88a.88.88,0,0,1-.88-.88V22.639A2.639,2.639,0,0,1,13.639,20h3.518A2.639,2.639,0,0,1,19.8,22.639v5.277A.88.88,0,0,1,18.916,28.8Zm-6.157-1.759h5.277v-4.4a.88.88,0,0,0-.88-.88H13.639a.88.88,0,0,0-.88.88Z" transform="translate(-0.964 -2.168)"/><path d="M25.868,10.644A6.848,6.848,0,0,0,25.666,9l-1.25-5a2.639,2.639,0,0,0-2.56-2H7.012a2.639,2.639,0,0,0-2.56,2L3.2,9A6.848,6.848,0,0,0,3,10.644a4.616,4.616,0,0,0,.9,2.709.824.824,0,0,0-.017.081V23.989a2.639,2.639,0,0,0,2.639,2.639H22.35a2.639,2.639,0,0,0,2.639-2.639V13.434a.825.825,0,0,0-.017-.081,4.616,4.616,0,0,0,.9-2.709ZM4.909,9.422l1.249-5a.88.88,0,0,1,.854-.667H21.856a.88.88,0,0,1,.854.667l1.249,5a5.062,5.062,0,0,1,.15,1.222,2.744,2.744,0,0,1-2.368,2.777,2.623,2.623,0,0,1-2.4-1.068,1.671,1.671,0,0,0-1.347-.685h-.015a1.815,1.815,0,0,0-1.44.72,2.639,2.639,0,0,1-4.209,0,1.815,1.815,0,0,0-1.44-.72h-.015a1.671,1.671,0,0,0-1.347.685,2.624,2.624,0,0,1-2.4,1.068,2.744,2.744,0,0,1-2.368-2.777A5.062,5.062,0,0,1,4.909,9.422ZM22.35,24.868H6.518a.88.88,0,0,1-.88-.88V14.8a4.115,4.115,0,0,0,1.319.374c.15.015.3.022.448.022a4.4,4.4,0,0,0,3.525-1.742,4.364,4.364,0,0,0,3.5,1.742,4.206,4.206,0,0,0,3.487-1.8,4.372,4.372,0,0,0,3.989,1.778,4.116,4.116,0,0,0,1.319-.374v9.191A.88.88,0,0,1,22.35,24.868Z" transform="translate(0 0)" fill="#171938"/></g></svg>