<svg xmlns="http://www.w3.org/2000/svg" width="28.344" height="28.345" viewBox="0 0 28.344 28.345">
  <g id="messenger" transform="translate(1 1)">
    <path id="Path_8" data-name="Path 8" d="M87.372,77.2a14.38,14.38,0,0,1,10.062,3.918,13.885,13.885,0,0,1,0,19.723,14.386,14.386,0,0,1-10.062,3.914H87.34a15.335,15.335,0,0,1-4.043-.543l-.007,0a.051.051,0,0,0-.034,0l-2.615,1.162a2.058,2.058,0,0,1-2.875-1.818l-.072-2.332a.065.065,0,0,0-.022-.043l-.008-.007a13.883,13.883,0,0,1-.353-20.059A14.383,14.383,0,0,1,87.372,77.2Zm-.032,25.555h.03c6.942,0,12.174-5.062,12.174-11.774S94.311,79.2,87.372,79.2,75.2,84.265,75.2,90.981a11.5,11.5,0,0,0,3.794,8.7,2.075,2.075,0,0,1,.7,1.457v.014l.072,2.34a.057.057,0,0,0,.027.044.051.051,0,0,0,.052,0l2.6-1.156a2.051,2.051,0,0,1,1.384-.1A13.334,13.334,0,0,0,87.34,102.755Z" transform="translate(-74.2 -78.2)" fill="#ecedf1"/>
    <path id="Path_9" data-name="Path 9" d="M145.509,208.224l3.869-6.137a1.978,1.978,0,0,1,2.862-.529l3.079,2.311a.8.8,0,0,0,.942,0l4.166-3.159a.626.626,0,0,1,.906.833l-3.869,6.137a1.978,1.978,0,0,1-2.855.529L151.53,205.9a.8.8,0,0,0-.956,0l-4.159,3.159A.626.626,0,0,1,145.509,208.224Z" transform="translate(-140.249 -191.712)" fill="#ecedf1"/>
  </g>
</svg>
