<svg xmlns="http://www.w3.org/2000/svg" width="26.344" height="26.345" viewBox="0 0 26.344 26.345">
  <g id="messenger_active" transform="translate(0)">
    <path id="Path_8" data-name="Path 8" d="M87.372,78.2C79.953,78.2,74.2,83.634,74.2,90.981a12.5,12.5,0,0,0,4.13,9.448,1.065,1.065,0,0,1,.362.754l.072,2.34a1.058,1.058,0,0,0,1.478.935l2.608-1.159a1.051,1.051,0,0,1,.71-.051,14.332,14.332,0,0,0,3.811.507c7.419,0,13.172-5.434,13.172-12.774S94.791,78.2,87.372,78.2Z" transform="translate(-74.2 -78.2)" fill="#1877f2"/>
    <path id="Path_9" data-name="Path 9" d="M145.509,208.224l3.869-6.137a1.978,1.978,0,0,1,2.862-.529l3.079,2.311a.8.8,0,0,0,.942,0l4.166-3.159a.626.626,0,0,1,.906.833l-3.869,6.137a1.978,1.978,0,0,1-2.855.529L151.53,205.9a.8.8,0,0,0-.956,0l-4.159,3.159A.626.626,0,0,1,145.509,208.224Z" transform="translate(-140.249 -191.712)" fill="#fff"/>
  </g>
</svg>
