<svg xmlns="http://www.w3.org/2000/svg" width="23.943" height="26.123" viewBox="0 0 23.943 26.123">
  <path id="notification" d="M23.947,15.967a4.01,4.01,0,0,1-1.182-2.853V9.794a9.794,9.794,0,0,0-19.589,0v3.319a4.01,4.01,0,0,1-1.182,2.853,3.4,3.4,0,0,0,2.4,5.8H7.638a5.441,5.441,0,0,0,10.665,0h3.243a3.4,3.4,0,0,0,2.4-5.8ZM12.971,23.942a3.265,3.265,0,0,1-3.065-2.176h6.129a3.265,3.265,0,0,1-3.065,2.177Zm8.574-4.353H4.4a1.22,1.22,0,0,1-.863-2.083,6.173,6.173,0,0,0,1.82-4.392V9.794a7.618,7.618,0,0,1,15.236,0v3.319a6.173,6.173,0,0,0,1.82,4.392,1.22,1.22,0,0,1-.863,2.083Z" transform="translate(-1)" fill="#ecedf1"/>
</svg>
