<svg xmlns="http://www.w3.org/2000/svg" width="23.01" height="23.178" viewBox="0 0 23.01 23.178"><g transform="translate(-260.966 -50.765)"><path d="M253.538,74.943H237.872a2.717,2.717,0,0,1-2.485-1.476,3.716,3.716,0,0,1-.415-1.345l0-.045v-.045c0-.124.078-12.457,0-14.632a3.871,3.871,0,0,1,2.6-3.844l.149-.048h4.994v2h-4.647a1.851,1.851,0,0,0-1.1,1.82c.077,2.157.008,13.572,0,14.651a1.712,1.712,0,0,0,.2.57.723.723,0,0,0,.707.392h15.565a1.708,1.708,0,0,0,.572-.2.724.724,0,0,0,.392-.707v-6.5h2v6.5a2.716,2.716,0,0,1-1.476,2.486,3.712,3.712,0,0,1-1.346.414Z" transform="translate(26 -1)" fill="#1877f2"/><path d="M20.217,3.891a2.666,2.666,0,0,0-3.757,0L4.981,15.369a.753.753,0,0,0-.2.406L4.291,19a.724.724,0,0,0,.715.835h.111l3.216-.483a.753.753,0,0,0,.406-.2l11.478-11.5A2.666,2.666,0,0,0,20.217,3.891ZM7.884,17.933l-2.014.3.3-2.014L16.281,6.117,17.99,7.826ZM19.193,6.624l-1.2,1.2L16.281,6.117l1.2-1.2a1.209,1.209,0,0,1,1.709,1.709Z" transform="translate(262.985 47.649)" fill="#1877f2"/></g></svg>