<svg xmlns="http://www.w3.org/2000/svg" width="23.205" height="23.202" viewBox="0 0 23.205 23.202"><path d="M6.593.264a4.238,4.238,0,0,0-4.22,4.22A4.166,4.166,0,0,0,3.318,7.1,5.276,5.276,0,0,0,.264,11.863a1.055,1.055,0,0,0,2.109,0A3.137,3.137,0,0,1,5.542,8.7H7.651a3.129,3.129,0,0,1,3.159,3.161,1.056,1.056,0,1,0,2.111,0A3.129,3.129,0,0,1,16.081,8.7H18.19a3.137,3.137,0,0,1,3.17,3.161,1.054,1.054,0,1,0,2.109,0A5.275,5.275,0,0,0,20.414,7.1a4.164,4.164,0,0,0,.946-2.617,4.219,4.219,0,1,0-8.438,0A4.163,4.163,0,0,0,13.863,7.1a5.3,5.3,0,0,0-2,1.635,5.3,5.3,0,0,0-2-1.634,4.168,4.168,0,0,0,.942-2.616A4.236,4.236,0,0,0,6.593.264Zm0,2.109A2.11,2.11,0,1,1,4.484,4.484,2.1,2.1,0,0,1,6.593,2.373Zm10.547,0A2.11,2.11,0,1,1,15.03,4.484a2.1,2.1,0,0,1,2.109-2.111ZM6.593,10.811a4.238,4.238,0,0,0-4.22,4.22,4.166,4.166,0,0,0,.946,2.619A5.273,5.273,0,0,0,.264,22.41a1.055,1.055,0,0,0,2.109,0,3.137,3.137,0,0,1,3.17-3.161H7.651A3.129,3.129,0,0,1,10.81,22.41a1.056,1.056,0,1,0,2.111,0,3.129,3.129,0,0,1,3.159-3.161H18.19a3.137,3.137,0,0,1,3.17,3.161,1.054,1.054,0,1,0,2.109,0,5.272,5.272,0,0,0-3.055-4.76,4.17,4.17,0,0,0,.946-2.619,4.219,4.219,0,1,0-8.438,0,4.162,4.162,0,0,0,.942,2.617,5.292,5.292,0,0,0-2,1.634,5.293,5.293,0,0,0-2-1.634,4.169,4.169,0,0,0,.942-2.617,4.236,4.236,0,0,0-4.218-4.22Zm0,2.111a2.109,2.109,0,1,1-2.109,2.109A2.094,2.094,0,0,1,6.593,12.922Zm10.547,0a2.109,2.109,0,1,1-2.109,2.109A2.1,2.1,0,0,1,17.139,12.922Z" transform="translate(-0.264 -0.264)" fill-rule="evenodd"/></svg>